<?xml version="1.0" encoding="utf-8"?>
<!-- Generator: Adobe Illustrator 16.0.0, SVG Export Plug-In . SVG Version: 6.00 Build 0)  -->
<!DOCTYPE svg PUBLIC "-//W3C//DTD SVG 1.1//EN" "http://www.w3.org/Graphics/SVG/1.1/DTD/svg11.dtd">
<svg version="1.1" id="图层_1" xmlns="http://www.w3.org/2000/svg" xmlns:xlink="http://www.w3.org/1999/xlink" x="0px" y="0px"
	 width="1018px" height="293px" viewBox="0 0 1018 293" enable-background="new 0 0 1018 293" xml:space="preserve">
<g>
	<path fill="#2EC2A0" d="M243.465,202.321l-51.568-69.523l-51.559,69.523H243.465L243.465,202.321z M191.355,132.089l-0.003-0.002
		c-0.01-0.009,0.011,0.011,0.001,0.006L191.355,132.089L191.355,132.089z M285.148,33.163c4.148,0.038,8.102,0.805,11.703,2.161
		c3.777,1.421,7.184,3.486,10.041,6.034c2.942,2.623,5.321,5.763,6.947,9.252c1.583,3.398,2.461,7.125,2.461,11.025
		s-0.877,7.627-2.461,11.025c-1.626,3.488-4.005,6.628-6.947,9.251c-2.907,2.594-6.367,4.683-10.191,6.103
		c-3.665,1.36-7.677,2.113-11.869,2.113h-0.093l20.455,27.607h46.826c4.183,0,8.188,0.752,11.854,2.11
		c3.841,1.423,7.305,3.512,10.207,6.099c2.944,2.626,5.321,5.768,6.947,9.256c1.584,3.398,2.46,7.124,2.46,11.023
		c0,3.9-0.876,7.626-2.459,11.024c-1.627,3.489-4.005,6.63-6.948,9.254c-2.902,2.588-6.366,4.677-10.207,6.101
		c-3.666,1.358-7.671,2.111-11.854,2.111h-12.317h-6.304h-2.207h-1.94l-1.169-1.577l-67.027-90.5l-0.041,0.024l-2.083-2.889
		l-0.244-0.339c-5.162-7.154-7.002-9.705-12.44-9.705c-2.729,0-4.419,0.491-5.877,1.667c-1.818,1.467-3.734,4.122-6.555,8.03
		l0.01,0.007l-0.243,0.339l-2.077,2.901l-0.066-0.04l-17.389,23.4c0.54,0.736,1.087,1.496,1.651,2.278l0.264,0.367l0.007-0.005
		l0.057,0.073l0.046,0.075l0.451,0.609L233.921,86c0.627-0.896,1.394-1.762,2.275-2.547c0.854-0.763,1.814-1.451,2.859-2.022
		c1.073-0.585,2.24-1.06,3.479-1.379h0.016c1.208-0.311,2.449-0.485,3.696-0.485c1.216,0,2.417,0.156,3.585,0.446
		c1.179,0.293,2.315,0.733,3.395,1.296l0.006-0.012c1.01,0.526,1.961,1.174,2.836,1.915c0.767,0.649,1.464,1.37,2.087,2.138
		l0.065,0.056l0.276,0.375l86.44,116.541h65.327h0.076h3.883v0.245c2.776,0.317,5.441,0.964,7.943,1.896
		c3.833,1.426,7.281,3.506,10.162,6.073c2.94,2.623,5.317,5.763,6.942,9.251c1.583,3.397,2.459,7.124,2.459,11.025
		c0,3.9-0.876,7.625-2.458,11.023c-1.625,3.488-4,6.628-6.942,9.254c-2.9,2.584-6.359,4.671-10.195,6.094l0.002,0.005
		c-3.666,1.359-7.68,2.111-11.872,2.111H307.526h-61.481c-2.229,0-4.326,0.388-6.211,1.087c-1.972,0.732-3.742,1.798-5.213,3.111
		v0.015c-1.453,1.295-2.615,2.817-3.393,4.481l0.012,0.005c-0.735,1.578-1.143,3.305-1.143,5.107c0,2.109-0.934,3.997-2.441,5.341
		c-1.385,1.235-3.269,2-5.32,2c-2.053,0-3.936-0.766-5.319-1.999v-0.015c-1.507-1.346-2.44-3.229-2.44-5.327
		c0-3.901,0.875-7.624,2.459-11.022c1.617-3.471,3.995-6.606,6.944-9.239v-0.015c2.903-2.587,6.368-4.676,10.209-6.1
		c3.666-1.358,7.673-2.111,11.857-2.111h61.481h102.738c2.198,0,4.296-0.393,6.208-1.102l0.006,0.014
		c1.952-0.726,3.722-1.795,5.211-3.123c1.454-1.297,2.617-2.822,3.396-4.49c0.728-1.558,1.13-3.283,1.13-5.105
		c0-1.823-0.402-3.547-1.129-5.104c-0.778-1.667-1.941-3.192-3.396-4.49c-1.489-1.329-3.259-2.399-5.21-3.125l-0.005,0.015
		c-1.911-0.709-4.011-1.104-6.209-1.104h-62.139h-7.201h-2.071h-1.939l-1.171-1.577l-30.202-40.713h-48.357H248.7h-0.027h-1.94
		l-1.169-1.577l-34.002-45.908v0.274l-6.938-9.642l-0.055-0.075l0.001-0.001l-0.031-0.043l-0.243-0.338l-0.016-0.015l-0.008-0.011
		l0.003-0.002c-5.148-7.132-6.991-9.678-12.418-9.678c-5.43,0-7.272,2.542-12.417,9.669l-0.011,0.022l-0.241,0.338l-1.772,2.479
		l-0.058-0.023l-29.6,39.849h0.004l-4.6,6.189l-5.138,6.915l-30.844,41.518l-0.015,0.02l-1.285,2.09l-2.715-0.623
		c-1.063-0.244-2.129-0.545-3.186-0.898c-1.037-0.347-2.055-0.744-3.044-1.188l-0.003,0.006l-0.099-0.044l-0.06-0.03l-0.022-0.01
		l-0.526-0.244l-0.061-0.029l-0.517-0.252l-5.397-2.621l0.505-0.422c-0.688-0.516-1.348-1.058-1.981-1.622l-0.007,0.009
		c-2.941-2.624-5.319-5.765-6.945-9.254c-1.584-3.397-2.46-7.122-2.46-11.021c0-3.901,0.876-7.625,2.459-11.024
		c1.626-3.488,4.004-6.63,6.946-9.252c2.901-2.588,6.367-4.677,10.208-6.101c3.666-1.358,7.673-2.111,11.857-2.111h18.766
		l25.611-34.477c-0.584-0.45-1.13-0.9-1.635-1.349c-2.941-2.624-5.318-5.764-6.944-9.252c-1.583-3.398-2.459-7.124-2.459-11.026
		c0-3.897,0.876-7.622,2.46-11.021c1.626-3.487,4.002-6.627,6.943-9.252c2.899-2.585,6.359-4.673,10.194-6.096l-0.001-0.004
		c3.666-1.359,7.679-2.112,11.875-2.112h2.717h14.018h26.244l3.399-4.574l-0.002-0.001l0.053-0.073l0.003,0.003l0.318-0.441
		c6.55-9.091,11.032-15.312,23.854-15.312c12.82,0,17.304,6.219,23.854,15.308l0.309,0.428l0.001-0.002l0.055,0.073l3.4,4.591
		h10.967c2.227,0,4.325-0.388,6.21-1.087c1.953-0.725,3.723-1.795,5.213-3.124c1.438-1.282,2.596-2.806,3.38-4.488h0.015
		c0.727-1.558,1.129-3.283,1.129-5.107c0-1.822-0.402-3.547-1.129-5.104h-0.015c-0.784-1.683-1.943-3.208-3.38-4.489
		c-1.47-1.312-3.242-2.378-5.216-3.11v-0.015c-1.885-0.7-3.983-1.088-6.208-1.088h-30.215h-35.438h-4.515
		c-4.192,0-8.206-0.752-11.871-2.111c-3.823-1.417-7.282-3.506-10.189-6.099v-0.015c-2.949-2.633-5.328-5.769-6.945-9.241
		c-1.583-3.396-2.459-7.12-2.459-11.02c0-2.098,0.932-3.98,2.439-5.328c1.392-1.243,3.274-2.014,5.316-2.014
		c2.053,0,3.936,0.765,5.32,2c1.508,1.344,2.441,3.234,2.441,5.343c0,1.822,0.402,3.545,1.129,5.103h0.015
		c0.791,1.697,1.946,3.224,3.373,4.499l0.007-0.009c1.49,1.329,3.261,2.398,5.212,3.123l0.005-0.014
		c1.912,0.71,4.01,1.103,6.207,1.103h4.515h35.438h30.215h0.287L285.148,33.163L285.148,33.163z M267.874,123.923l-21.585-29.098
		l-18.219,24.539l-2.1,2.817l4.668,6.304l23.365,31.546h40.652l-21.651-29.194L267.874,123.923L267.874,123.923z M246.817,94.096
		l0.009-0.004h-0.006L246.817,94.096L246.817,94.096z M127.51,217.003h-1.916h-7.358h-7.7l4.59-6.189l5.129-6.914l59.238-79.883
		l-0.005-0.004c0.62-0.893,1.4-1.771,2.317-2.591c0.852-0.761,1.813-1.449,2.857-2.022c1.061-0.579,2.227-1.05,3.48-1.375
		l-0.001-0.004c1.209-0.313,2.456-0.485,3.715-0.485c1.216,0,2.416,0.156,3.583,0.446c1.175,0.293,2.306,0.729,3.38,1.29
		l0.003-0.006c1.039,0.54,1.994,1.187,2.851,1.914c0.733,0.622,1.417,1.328,2.04,2.097l0.099,0.079l0.292,0.395l64.576,87.063
		l4.591,6.189h-7.701h-7.201h-2.074H127.51L127.51,217.003z M203.556,95.718l4.156-5.591h-15.336h-14.018h-2.717
		c-2.206,0-4.305,0.391-6.214,1.096l0.001,0.005c-1.974,0.732-3.745,1.797-5.217,3.109c-1.453,1.295-2.616,2.82-3.395,4.487
		c-0.727,1.557-1.13,3.282-1.13,5.103c0,1.824,0.402,3.548,1.128,5.104c0.771,1.653,1.922,3.166,3.358,4.456l3.442-4.632
		l-0.005-0.003l0.053-0.073l0.007,0.005l0.331-0.459c6.547-9.089,11.029-15.311,23.856-15.311c3.252,0,6.021,0.451,8.474,1.289
		C201.482,94.697,202.552,95.171,203.556,95.718L203.556,95.718z M100.591,199.083l18.102-24.37h-7.861
		c-2.201,0-4.301,0.393-6.213,1.103l-0.005-0.015c-1.969,0.731-3.737,1.796-5.207,3.109v0.015c-1.453,1.295-2.615,2.817-3.393,4.481
		l0.012,0.005c-0.735,1.578-1.143,3.305-1.143,5.108c0,1.824,0.402,3.549,1.129,5.107c0.776,1.664,1.939,3.188,3.395,4.481v0.016
		C99.784,198.462,100.18,198.782,100.591,199.083L100.591,199.083z M316.065,132.414l20.453,27.617h15.5
		c2.227,0,4.324-0.388,6.209-1.087c1.954-0.726,3.724-1.797,5.215-3.128c1.438-1.281,2.596-2.806,3.381-4.488h0.015
		c0.727-1.558,1.129-3.283,1.129-5.105c0-1.823-0.403-3.547-1.129-5.105c-0.778-1.667-1.941-3.191-3.396-4.488
		c-1.491-1.331-3.262-2.402-5.217-3.128c-1.884-0.7-3.98-1.087-6.207-1.087H316.065L316.065,132.414z M72.68,183.74H42.471
		c-4.184,0-8.192-0.753-11.858-2.111c-3.841-1.424-7.306-3.511-10.207-6.099c-2.941-2.623-5.319-5.765-6.946-9.253
		C11.877,162.879,11,159.152,11,155.252s0.876-7.625,2.459-11.023c1.625-3.489,4.004-6.629,6.946-9.252
		c2.899-2.585,6.359-4.672,10.194-6.096l-0.001-0.005c3.666-1.359,7.68-2.111,11.873-2.111h5.29h29.737h16.49
		c2.229,0,4.327-0.389,6.211-1.088v-0.016c1.992-0.74,3.763-1.801,5.214-3.097v-0.015c1.455-1.294,2.618-2.818,3.394-4.482
		c0.728-1.559,1.13-3.286,1.13-5.109c0-1.803-0.408-3.529-1.144-5.106l0.013-0.005c-0.778-1.664-1.94-3.187-3.393-4.481v-0.015
		c-1.469-1.313-3.236-2.378-5.206-3.109l-0.005,0.014c-1.912-0.709-4.014-1.102-6.215-1.102H64.182
		c-4.195,0-8.208-0.752-11.874-2.112c-3.824-1.419-7.283-3.507-10.191-6.102c-2.941-2.623-5.319-5.764-6.945-9.252
		c-1.583-3.398-2.46-7.123-2.46-11.021c0-2.1,0.933-3.982,2.44-5.328c1.392-1.244,3.276-2.014,5.317-2.014s3.926,0.77,5.32,2.014
		c1.507,1.345,2.44,3.228,2.44,5.328c0,1.822,0.402,3.546,1.128,5.104c0.779,1.667,1.941,3.192,3.395,4.489
		c1.471,1.311,3.243,2.376,5.217,3.108c1.912,0.709,4.012,1.102,6.211,1.102h29.806c4.193,0,8.205,0.753,11.869,2.111
		c3.825,1.418,7.284,3.509,10.193,6.103c2.943,2.624,5.322,5.764,6.948,9.252c1.584,3.397,2.461,7.123,2.461,11.023
		c0,3.9-0.877,7.626-2.461,11.026c-1.626,3.488-4.006,6.629-6.948,9.25c-2.909,2.593-6.366,4.683-10.19,6.1
		c-3.665,1.359-7.677,2.111-11.872,2.111h-16.49H47.761h-5.29c-2.199,0-4.299,0.394-6.212,1.103l-0.006-0.014
		c-1.97,0.732-3.738,1.797-5.208,3.109v0.015c-1.453,1.295-2.616,2.817-3.394,4.481l0.013,0.006
		c-0.735,1.577-1.144,3.303-1.144,5.106c0,1.803,0.408,3.529,1.144,5.107l-0.013,0.005c0.777,1.664,1.94,3.188,3.394,4.483
		c1.489,1.329,3.26,2.398,5.215,3.124c1.885,0.701,3.984,1.088,6.211,1.088h32.964h6.758l-3.42,5.84
		c-0.537,0.918-1.003,1.866-1.39,2.836c-0.375,0.94-0.686,1.938-0.926,2.985l-0.693,3.02H72.68L72.68,183.74z"/>
	<path fill-rule="evenodd" clip-rule="evenodd" fill="#2EC2A0" d="M556.267,104.859c0.893,0.703,1.777,1.53,2.655,2.483
		l17.954,14.508h23.948c3.195,0,5.797,2.601,5.797,5.797c0,1.951-0.964,3.678-2.44,4.73h13.128c3.062,0,6.435-0.644,8.59-3.005
		c2.38-2.609,2.931-6.754,2.931-10.138V68.305c0-5.598,1.32-11.219,5.238-15.408c3.934-4.207,9.314-5.769,14.953-5.78
		c3.193-0.006,5.789,2.59,5.789,5.783s-2.592,5.783-5.784,5.786c-2.222,0.002-4.891,0.396-6.488,2.105
		c-1.751,1.875-2.11,5.071-2.11,7.514v50.929c0,6.486-1.517,13.04-6,17.939c-4.469,4.883-10.614,6.797-17.118,6.797H512.806
		c-5.304,0-10.408-1.454-14.253-5.243l-0.121-0.101l-0.059-0.079c-3.763-3.833-5.259-8.971-5.259-14.265V87.031
		c0-3.2,2.6-5.8,5.801-5.8c3.201,0,5.796,2.6,5.796,5.8v37.251c0,2.054,0.376,4.54,1.855,6.094l0.099,0.096
		c1.541,1.542,4.063,1.905,6.141,1.905h5.872c-0.281-0.224-0.545-0.478-0.786-0.76c-2.07-2.417-1.782-6.101,0.641-8.165
		l18.952-16.165c0.919-0.924,1.843-1.734,2.772-2.428h-11.522c-3.2,0-6.246-1.275-8.506-3.537c-2.265-2.264-3.533-5.304-3.533-8.508
		V80.129c0-3.199,1.272-6.246,3.532-8.509c2.26-2.261,5.308-3.529,8.507-3.529h8.464c3.201,0,5.796,2.596,5.796,5.797
		c0,3.199-2.596,5.799-5.796,5.799h-8.464c-0.117,0-0.226,0.049-0.308,0.131c-0.082,0.083-0.137,0.192-0.137,0.311v12.685
		c0,0.117,0.054,0.229,0.135,0.31c0.082,0.083,0.191,0.136,0.31,0.136h14.002c-0.046-0.296-0.07-0.597-0.07-0.9V79.327
		c0-2.925,0.397-5.675,2.353-7.965c2.205-2.583,5.203-3.271,8.488-3.271h13.695c-0.392-1.355-0.291-2.851,0.382-4.196
		c0.103-0.206,0.13-0.546,0.13-0.772c0-0.288-0.042-0.661-0.178-0.921c-0.014-0.024-0.035-0.063-0.007-0.066
		c-0.065-0.009-0.151-0.01-0.208-0.01h-32.048v-0.155c-2.574-0.371-4.925-1.466-6.834-3.326c-2.24-2.182-3.489-5.039-3.95-8.104
		c-0.475-3.164,1.703-6.123,4.869-6.597c3.164-0.475,6.111,1.713,6.59,4.873c0.064,0.422,0.239,1.221,0.563,1.536
		c0.107,0.105,0.289,0.153,0.451,0.174h30.359c1.872,0,3.688,0.412,5.362,1.253c2.214,1.111,3.955,2.88,5.099,5.067
		c1.006,1.922,1.531,4.106,1.531,6.274c0,1.769-0.35,3.544-1.034,5.175c2.364,0.445,4.556,1.594,6.282,3.323
		c2.26,2.262,3.533,5.309,3.533,8.508v12.685c0,3.203-1.272,6.243-3.533,8.508c-2.259,2.263-5.31,3.537-8.509,3.537H556.267
		L556.267,104.859z M525.896,132.377h45.607c-0.099-0.069-0.195-0.143-0.289-0.219l-19.736-15.95
		c-0.326-0.239-0.624-0.515-0.893-0.816c-1.795-2.018-3.167-1.694-4.943,0.107c-0.146,0.156-0.299,0.305-0.46,0.442l-19.13,16.307
		C526,132.292,525.948,132.335,525.896,132.377L525.896,132.377z M747.335,119.833c-0.292,0.374-0.634,0.717-1.025,1.02
		c-2.528,1.955-6.166,1.488-8.118-1.041L709.343,82.44c-0.649-0.841-1.388-1.635-2.225-2.292c-0.962-0.755-2.154-1.388-3.406-1.391
		c-1.277-0.003-2.491,0.629-3.479,1.393c-0.859,0.663-1.622,1.486-2.291,2.338l-37.467,47.738c-1.973,2.514-5.623,2.952-8.135,0.976
		c-1.402-1.102-2.215-2.772-2.215-4.554l-0.004-56.684c0-3.202,2.597-5.798,5.799-5.798c3.199,0,5.801,2.597,5.801,5.798v39.911
		l27.107-34.546c1.266-1.613,2.709-3.083,4.332-4.338c3.067-2.372,6.652-3.802,10.557-3.794c3.911,0.007,7.496,1.445,10.555,3.845
		c1.59,1.248,2.994,2.729,4.228,4.327l28.835,37.352V69.964c0-3.205,2.599-5.798,5.803-5.798c3.198,0,5.795,2.6,5.795,5.798v53.963
		c0,5.264-0.949,10.998-4.561,15.066c-3.054,3.44-7.094,4.835-11.6,4.835h-78.229l-0.042-0.003h-0.08l-0.041-0.004l-0.156-0.002
		l-0.114-0.014l-0.091-0.004l-0.24-0.033l-0.19-0.012l-0.103-0.04l-0.117-0.019l-0.035-0.011l-0.111-0.009l-0.181-0.066l-0.05-0.01
		l-0.051-0.02l-0.07-0.013l-0.07-0.029l-0.022-0.005l-0.155-0.061l-0.164-0.058l-0.029-0.018l-0.075-0.027l-0.162-0.074
		l-0.239-0.121l-0.064-0.027l-0.33-0.196l-0.182-0.119l-0.343-0.207l-0.05-0.084c-2.461-1.975-2.879-5.574-0.937-8.072
		l30.055-38.655c3.362-4.326,7.843-8.173,13.614-8.159c5.758,0.014,10.217,3.844,13.572,8.159l27.926,35.914
		c0.184-0.108,0.354-0.241,0.5-0.405c1.444-1.63,1.621-5.365,1.621-7.398V119.833L747.335,119.833z M921.63,87.563
		c1.651-2.718,5.217-3.603,7.939-1.952c2.719,1.649,3.598,5.227,1.947,7.945l-16.508,27.181c-1.648,2.713-5.221,3.593-7.938,1.949
		c-2.718-1.644-3.601-5.226-1.95-7.942L921.63,87.563L921.63,87.563z M927.942,72.475h14.075V49.678
		c0-3.203,2.599-5.798,5.801-5.798s5.795,2.598,5.795,5.798v6.29h29.141c3.2,0,5.796,2.597,5.796,5.797
		c0,3.199-2.598,5.794-5.796,5.794h-29.141v4.916h39.809c3.206,0,5.798,2.596,5.798,5.801c0,3.206-2.592,5.796-5.798,5.796h-39.809
		v39.708c0,3.201-2.592,5.801-5.795,5.801c-3.204,0-5.801-2.597-5.801-5.801V84.072h-39.809c-3.2,0-5.797-2.596-5.797-5.796
		c0-3.199,2.597-5.801,5.797-5.801h14.137V55.722c0-3.206,2.598-5.798,5.803-5.798c3.199,0,5.794,2.6,5.794,5.798V72.475
		L927.942,72.475z M823.338,91.368l10.458,7.399V84.072h-22.451c-3.2,0-5.796-2.596-5.796-5.796c0-3.199,2.596-5.801,5.796-5.801
		h22.451v-4.916h-18.727c-3.2,0-5.8-2.593-5.8-5.794c0-3.203,2.598-5.797,5.8-5.797h18.727v-6.29c0-3.202,2.594-5.798,5.796-5.798
		c3.204,0,5.796,2.595,5.796,5.798v6.29h19.011c3.201,0,5.801,2.595,5.801,5.797c0,3.201-2.602,5.794-5.801,5.794h-19.011v4.916
		h27.369c3.202,0,5.796,2.6,5.796,5.801c0,3.202-2.595,5.796-5.796,5.796h-27.369v3.308h18.61c3.2,0,5.797,2.594,5.797,5.794
		c0,3.202-2.595,5.798-5.797,5.798h-18.61v7.995l34.162,24.164l4.848,1.246h71.522c2.973,0,6.438-1.013,8.999-2.491
		c2.139-1.234,3.946-2.943,4.983-5.214l15.289-33.497c1.323-2.9,4.767-4.184,7.666-2.857c2.898,1.325,4.181,4.763,2.858,7.663
		l-15.293,33.5c-2.054,4.499-5.48,7.975-9.738,10.429c-4.245,2.446-9.842,4.061-14.765,4.061h-73.948v-0.281l-6.314-1.62
		c-0.683-0.175-1.329-0.476-1.905-0.884l-36.083-25.524c-1.014-0.357-1.914-0.994-2.591-1.829l-17.932-12.688v37.03
		c0,3.204-2.599,5.796-5.802,5.796c-3.199,0-5.796-2.597-5.796-5.796V98.309c0-2.056,0.608-4.052,1.777-5.699
		c0.128-0.188,0.257-0.35,0.383-0.494c0.861-1.079,1.929-1.938,3.164-2.555c1.412-0.705,2.954-1.067,4.532-1.067
		c2.765,0,5.386,1.06,7.619,2.638C823.132,91.206,823.235,91.285,823.338,91.368L823.338,91.368z M796.948,72.475
		c3.202,0,5.797,2.6,5.797,5.801c0,3.202-2.595,5.796-5.797,5.796c-0.773,0-3.639,0.046-4.234,0.631
		c-0.592,0.582-0.641,3.479-0.641,4.243v49.228c0,3.202-2.599,5.796-5.8,5.796c-3.2,0-5.795-2.596-5.795-5.796V88.946
		c0-4.55,0.745-9.168,4.121-12.491C787.924,73.184,792.462,72.475,796.948,72.475L796.948,72.475z M591.762,103.843
		c3.975,0,7.198,3.223,7.198,7.197c0,3.978-3.22,7.201-7.198,7.201c-3.979,0-7.2-3.222-7.2-7.201
		C584.562,107.063,587.785,103.843,591.762,103.843L591.762,103.843z M788.9,54.564c3.975,0,7.197,3.226,7.197,7.2
		c0,3.974-3.223,7.201-7.197,7.201s-7.203-3.226-7.203-7.201S784.926,54.564,788.9,54.564L788.9,54.564z M498.915,63.926
		c3.979,0,7.197,3.223,7.197,7.202c0,3.977-3.221,7.196-7.197,7.196c-3.975,0-7.202-3.221-7.202-7.196
		C491.713,67.151,494.938,63.926,498.915,63.926L498.915,63.926z M554.194,93.26h21.858c0.117,0,0.227-0.058,0.309-0.139
		c0.083-0.082,0.135-0.188,0.135-0.307V80.129c0-0.119-0.057-0.226-0.139-0.31c-0.081-0.08-0.189-0.132-0.305-0.132h-21.789v12.672
		C554.264,92.663,554.241,92.964,554.194,93.26L554.194,93.26z M676.472,132.233h54.449l-22.783-29.302
		c-0.766-0.985-3.009-3.708-4.428-3.708c-1.443-0.001-3.678,2.707-4.457,3.708L676.472,132.233L676.472,132.233z"/>
	<path fill-rule="evenodd" clip-rule="evenodd" fill="#2EC2A0" d="M521.179,175.27l-0.026-0.023l0.979-1.078
		c0.006-0.008,0.013-0.015,0.02-0.021l0.852-0.937l0.166,0.151c0.571-0.324,1.211-0.531,1.857-0.618
		c1.039-0.14,2.128,0.026,3.039,0.514l0.098,0.052c0.258,0.144,0.502,0.311,0.729,0.501c0.672,0.569,1.16,1.322,1.356,2.187
		c0.207,0.914,0.063,1.847-0.396,2.665c-0.127,0.229-0.276,0.445-0.445,0.645l-13.881,15.924v17.692c0,1.228-0.59,2.316-1.554,3.061
		c-0.868,0.669-1.966,1-3.057,1c-1.09,0-2.188-0.331-3.056-1c-0.965-0.743-1.555-1.833-1.555-3.061V195.16l-13.815-15.854
		c-0.192-0.23-0.364-0.478-0.504-0.742c-0.418-0.791-0.555-1.683-0.365-2.559c0.187-0.859,0.668-1.604,1.337-2.168
		c0.244-0.203,0.496-0.376,0.753-0.514c0.932-0.55,2.043-0.725,3.109-0.578c1.011,0.139,2.004,0.576,2.742,1.287
		c0.068,0.061,0.134,0.126,0.204,0.204l11.179,12.849L521.179,175.27L521.179,175.27z M554.902,172.722
		c0.073,0.017,0.145,0.035,0.216,0.058c0.574,0.182,1.123,0.468,1.586,0.854c0.478,0.398,0.862,0.897,1.101,1.473l17.688,36.095
		c0.116,0.22,0.211,0.453,0.28,0.693c0.265,0.908,0.163,1.872-0.26,2.716c-0.395,0.785-1.037,1.423-1.813,1.832
		c-0.265,0.14-0.544,0.252-0.843,0.342l-0.055,0.016c-1.043,0.291-2.188,0.267-3.21-0.096c-1.1-0.392-2.017-1.149-2.481-2.204
		l-4.369-8.924c-0.015-0.001-0.03-0.001-0.041-0.001h-18.266c-0.012,0-0.025,0-0.041,0.001l-4.352,8.888
		c-0.476,1.078-1.4,1.849-2.5,2.24c-1.021,0.362-2.16,0.382-3.201,0.098l-0.033-0.009c-0.303-0.088-0.598-0.205-0.876-0.352
		c-0.774-0.411-1.416-1.046-1.81-1.831c-0.424-0.845-0.526-1.809-0.261-2.718c0.071-0.243,0.167-0.479,0.265-0.662l17.705-36.127
		c0.471-1.086,1.402-1.855,2.504-2.248C552.81,172.509,553.899,172.474,554.902,172.722L554.902,172.722z M601.464,179.642v33.231
		c0,1.224-0.59,2.322-1.541,3.075c-0.867,0.686-1.969,1.035-3.07,1.035c-1.072,0-2.14-0.314-2.984-0.953l-0.096-0.071
		c-0.956-0.757-1.531-1.86-1.531-3.086v-33.231h-11.625c-0.93,0-1.846-0.3-2.568-0.893c-0.806-0.663-1.281-1.618-1.281-2.665
		c0-1.06,0.503-2.008,1.341-2.646c0.717-0.546,1.612-0.812,2.509-0.812h32.472c0.892,0,1.79,0.282,2.501,0.824
		c0.834,0.635,1.35,1.576,1.35,2.634c0,1.044-0.488,1.991-1.289,2.651c-0.716,0.589-1.636,0.906-2.562,0.906H601.464
		L601.464,179.642z M651.058,179.759v11.396c0.041,0.032,0.104,0.058,0.151,0.073c0.099,0.033,0.208,0.045,0.312,0.045h16.426
		c1.168,0,2.33,0.179,3.424,0.528l0.066,0.021c1.112,0.36,2.168,0.9,3.102,1.606l0.078,0.063c0.883,0.734,1.633,1.623,2.156,2.648
		c0.52,1.017,0.797,2.121,0.797,3.265v9.599c0,1.146-0.276,2.258-0.802,3.274c-0.518,1.001-1.258,1.866-2.099,2.543l-0.09,0.076
		c-0.909,0.722-1.947,1.265-3.033,1.622l-0.056,0.019c-1.143,0.371-2.343,0.547-3.544,0.547h-21.309
		c-1.393,0-2.735-0.579-3.467-1.808c-0.02-0.032-0.039-0.064-0.059-0.099c-0.268-0.485-0.406-1.028-0.408-1.581
		c-0.002-0.555,0.137-1.1,0.404-1.586c0.711-1.295,2.098-1.892,3.529-1.892h21.309c0.079,0,0.156-0.012,0.23-0.038
		c0.06-0.021,0.117-0.051,0.171-0.085v-11.631c-0.028-0.015-0.058-0.025-0.087-0.035c-0.099-0.032-0.21-0.043-0.314-0.043h-16.426
		c-1.209,0-2.416-0.181-3.565-0.56c-1.108-0.365-2.147-0.914-3.038-1.609l-0.09-0.068c-0.9-0.711-1.654-1.603-2.181-2.622
		c-0.523-1.016-0.81-2.128-0.81-3.271v-9.449c0-1.135,0.281-2.229,0.801-3.235c0.513-0.992,1.228-1.848,2.055-2.544
		c0.061-0.055,0.109-0.098,0.174-0.146c0.94-0.712,2.002-1.251,3.125-1.611c1.141-0.365,2.332-0.544,3.529-0.544h21.247
		c1.448,0,2.841,0.635,3.551,1.941c0.262,0.483,0.403,1.021,0.407,1.572c0.004,0.561-0.134,1.111-0.404,1.604
		c-0.715,1.305-2.113,1.897-3.554,1.897h-21.247c-0.104,0-0.212,0.012-0.311,0.044c-0.053,0.017-0.098,0.03-0.113,0.04
		L651.058,179.759L651.058,179.759z M678.491,209.581c-0.062-0.204-0.092-0.415-0.092-0.628v-28.146c0-0.213,0.03-0.424,0.092-0.627
		c0.078-0.9,0.32-1.756,0.707-2.531c0.022-0.055,0.037-0.089,0.065-0.143c0.525-1.03,1.283-1.926,2.188-2.645
		c0.932-0.737,2.009-1.296,3.135-1.668c1.146-0.378,2.354-0.568,3.561-0.568h24.29c1.45,0,2.817,0.672,3.502,1.985
		c0.246,0.473,0.38,0.998,0.385,1.531c0.006,0.549-0.124,1.093-0.38,1.579c-0.694,1.313-2.066,1.92-3.507,1.92h-24.29
		c-0.113,0-0.236,0.015-0.343,0.051c-0.027,0.01-0.067,0.023-0.095,0.039c-0.028,0.026-0.059,0.051-0.089,0.076v11.767h24.816
		c1.45,0,2.817,0.672,3.502,1.984c0.246,0.474,0.38,0.999,0.385,1.532c0.006,0.549-0.124,1.093-0.38,1.578
		c-0.694,1.313-2.066,1.92-3.507,1.92h-24.816v11.363c0.044,0.024,0.11,0.047,0.151,0.061c0.121,0.038,0.248,0.057,0.375,0.057
		h24.29c1.438,0,2.813,0.607,3.507,1.919c0.256,0.486,0.385,1.027,0.38,1.577c-0.005,0.536-0.135,1.063-0.384,1.537
		c-0.688,1.311-2.055,1.981-3.503,1.981h-24.29c-1.224,0-2.451-0.183-3.613-0.567c-1.131-0.373-2.201-0.939-3.098-1.685
		c-0.894-0.712-1.646-1.587-2.172-2.604C678.837,211.4,678.573,210.507,678.491,209.581L678.491,209.581z M752.951,203.077v-26.34
		c0-1.223,0.612-2.314,1.571-3.054c0.863-0.666,1.953-1.007,3.039-1.007c1.087,0,2.178,0.342,3.041,1.007
		c0.959,0.738,1.57,1.832,1.57,3.054v36.186c0,1.225-0.588,2.322-1.541,3.075c-0.868,0.686-1.969,1.036-3.07,1.036
		c-0.608,0-1.217-0.111-1.789-0.322c-0.555-0.204-1.068-0.498-1.487-0.866c-0.085-0.066-0.152-0.129-0.218-0.198l-27.664-28.993
		v26.269c0,1.221-0.604,2.311-1.551,3.061c-0.86,0.683-1.965,1.051-3.061,1.051c-1.102,0-2.204-0.351-3.071-1.037
		c-0.95-0.755-1.539-1.85-1.539-3.074v-36.186c0-0.694,0.198-1.371,0.561-1.963c0.333-0.544,0.782-0.992,1.298-1.317
		c0.922-0.635,2.056-0.9,3.168-0.801c1.119,0.101,2.2,0.573,2.977,1.369L752.951,203.077L752.951,203.077z M799.338,198.137v14.786
		c0,1.221-0.613,2.319-1.56,3.069c-0.862,0.683-1.955,1.042-3.052,1.042c-1.099,0-2.194-0.357-3.058-1.045
		c-0.942-0.75-1.553-1.848-1.553-3.066v-36.035c0-1.225,0.589-2.32,1.54-3.073c0.866-0.687,1.97-1.038,3.07-1.038
		c1.069,0,2.12,0.319,2.941,0.942c0.05,0.034,0.083,0.058,0.13,0.095c0.951,0.753,1.54,1.85,1.54,3.074v14.233H821.7v-14.233
		c0-1.225,0.589-2.32,1.54-3.073c0.866-0.687,1.97-1.038,3.071-1.038s2.204,0.352,3.071,1.038c0.949,0.753,1.539,1.85,1.539,3.073
		v36.035c0,1.184-0.577,2.257-1.452,2.98l-0.103,0.088c-0.863,0.684-1.958,1.043-3.056,1.043c-1.1,0-2.195-0.357-3.059-1.045
		c-0.942-0.75-1.553-1.848-1.553-3.066v-14.786H799.338L799.338,198.137z M837.587,179.642h-1.985c-0.907,0-1.812-0.303-2.523-0.867
		c-0.815-0.646-1.325-1.594-1.325-2.641c0-1.048,0.51-1.995,1.325-2.64c0.712-0.564,1.616-0.868,2.523-0.868h13.129
		c0.908,0,1.815,0.285,2.54,0.838c0.843,0.643,1.373,1.601,1.373,2.67c0,1.068-0.53,2.028-1.373,2.672
		c-0.725,0.551-1.633,0.836-2.54,0.836h-1.922v30.428h1.922c0.907,0,1.815,0.285,2.54,0.836c0.843,0.644,1.373,1.603,1.373,2.672
		c0,1.068-0.53,2.027-1.373,2.671c-0.724,0.552-1.632,0.836-2.54,0.836h-13.129c-0.907,0-1.812-0.302-2.523-0.867
		c-0.815-0.645-1.325-1.593-1.325-2.64c0-1.048,0.51-1.996,1.325-2.641c0.712-0.564,1.616-0.867,2.523-0.867l1.985-0.012V179.642
		L837.587,179.642z M862.695,199.08v13.944c0,1.239-0.604,2.345-1.577,3.097c-0.882,0.679-1.99,1.014-3.098,1.014
		c-1.101,0-2.192-0.35-3.051-1.048c-0.933-0.759-1.495-1.854-1.495-3.063v-36.488c0-1.21,0.563-2.305,1.496-3.063
		c0.858-0.698,1.949-1.048,3.05-1.048c1.107,0,2.216,0.334,3.098,1.015c0.973,0.751,1.577,1.856,1.577,3.097v11.368l2.671,2.176
		l16.483-16.47c1.14-1.109,2.797-1.447,4.288-0.915c0.458,0.164,0.891,0.411,1.26,0.729c0.421,0.361,0.759,0.813,0.965,1.331
		c0.508,1.275,0.152,2.569-0.801,3.569l-16.444,16.452l17.815,14.812c0.212,0.182,0.409,0.38,0.583,0.598
		c0.559,0.704,0.865,1.566,0.853,2.466c-0.014,0.908-0.352,1.765-0.938,2.457c-0.165,0.195-0.338,0.363-0.513,0.507l-0.048,0.042
		c-0.847,0.718-1.942,1.07-3.047,1.07c-1.078,0-2.174-0.339-3.098-1.024L862.695,199.08L862.695,199.08z M906.298,179.642v30.428
		h1.922c0.907,0,1.814,0.285,2.539,0.836c0.843,0.644,1.374,1.603,1.374,2.672c0,1.068-0.531,2.027-1.373,2.671
		c-0.725,0.553-1.633,0.836-2.54,0.836h-13.129c-0.907,0-1.813-0.302-2.524-0.867c-0.815-0.645-1.325-1.593-1.325-2.64
		c0-1.048,0.51-1.996,1.325-2.641c0.712-0.564,1.617-0.867,2.524-0.867l1.984-0.012v-30.416h-1.984
		c-0.907,0-1.813-0.303-2.524-0.867c-0.815-0.646-1.325-1.594-1.325-2.641s0.512-1.995,1.325-2.64
		c0.712-0.564,1.617-0.868,2.524-0.868h13.129c0.907,0,1.815,0.284,2.54,0.838c0.842,0.643,1.373,1.601,1.373,2.67
		c0,1.068-0.531,2.028-1.374,2.672c-0.725,0.551-1.632,0.836-2.539,0.836H906.298L906.298,179.642z M948.732,203.077v-26.34
		c0-1.223,0.612-2.314,1.57-3.054c0.864-0.666,1.954-1.007,3.041-1.007s2.177,0.342,3.04,1.007c0.958,0.739,1.57,1.831,1.57,3.054
		v36.186c0,1.225-0.588,2.322-1.54,3.075c-0.867,0.686-1.969,1.036-3.07,1.036c-0.608,0-1.218-0.111-1.79-0.322
		c-0.554-0.205-1.068-0.498-1.488-0.867c-0.081-0.063-0.145-0.123-0.216-0.197l-27.665-28.993v26.269
		c0,1.221-0.603,2.311-1.549,3.061c-0.862,0.683-1.965,1.051-3.063,1.051c-1.101,0-2.204-0.351-3.071-1.037
		c-0.95-0.755-1.538-1.85-1.538-3.074v-36.186c0-0.693,0.199-1.369,0.56-1.96c0.332-0.546,0.782-0.993,1.298-1.319
		c0.922-0.637,2.057-0.901,3.168-0.802c1.119,0.101,2.201,0.573,2.978,1.369L948.732,203.077L948.732,203.077z M968.007,179.72
		v30.228c0.052,0.033,0.108,0.062,0.166,0.082c0.074,0.027,0.153,0.04,0.232,0.04h21.311c0.101,0,0.204-0.012,0.301-0.045
		c0.057-0.02,0.111-0.045,0.162-0.077v-11.085c-0.051-0.032-0.105-0.058-0.164-0.078c-0.096-0.032-0.198-0.045-0.299-0.045h-7.992
		c-1.429,0-2.815-0.578-3.529-1.87c-0.271-0.491-0.41-1.044-0.404-1.604c0.006-0.545,0.148-1.08,0.409-1.559
		c0.707-1.293,2.088-1.932,3.524-1.932h7.992c1.21,0,2.416,0.182,3.567,0.561c1.105,0.365,2.132,0.904,3.028,1.604l0.057,0.04
		c0.924,0.696,1.688,1.588,2.222,2.616c0.53,1.025,0.811,2.155,0.811,3.312v8.997c0,1.153-0.28,2.275-0.805,3.301
		c-0.513,1.005-1.236,1.873-2.092,2.564c-0.047,0.042-0.085,0.072-0.135,0.11c-0.946,0.716-2.013,1.272-3.14,1.645
		c-1.134,0.374-2.32,0.561-3.514,0.561h-21.311c-1.181,0-2.354-0.194-3.473-0.567c-1.117-0.373-2.178-0.927-3.117-1.638
		l-0.075-0.057l-0.026-0.025c-0.877-0.709-1.611-1.587-2.125-2.593c-0.523-1.025-0.805-2.147-0.805-3.301v-28.146
		c0-1.146,0.276-2.257,0.802-3.274c0.529-1.024,1.291-1.906,2.192-2.62c0.927-0.733,1.98-1.294,3.101-1.668
		c1.137-0.38,2.329-0.568,3.526-0.568h26.637c1.411,0,2.754,0.614,3.462,1.856l0.058,0.103c0.255,0.479,0.389,1.014,0.392,1.555
		c0.004,0.552-0.131,1.094-0.39,1.58c-0.7,1.312-2.08,1.922-3.521,1.922h-26.637c-0.104,0-0.214,0.011-0.313,0.043
		C968.063,179.694,968.033,179.706,968.007,179.72L968.007,179.72z M639.685,197.231c-0.717,0.568-1.617,0.855-2.527,0.855h-15.539
		c-0.911,0-1.813-0.287-2.529-0.855c-0.819-0.648-1.32-1.603-1.32-2.652c0-1.051,0.501-2.005,1.32-2.652
		c0.716-0.568,1.618-0.855,2.529-0.855h15.539c0.91,0,1.811,0.287,2.527,0.855c0.819,0.648,1.321,1.602,1.321,2.652
		C641.006,195.629,640.504,196.583,639.685,197.231L639.685,197.231z M559.273,198.561l-5.706-11.651l-5.707,11.651H559.273
		L559.273,198.561z"/>
</g>
</svg>
