<?xml version="1.0" encoding="utf-8"?>
<!-- Generator: Adobe Illustrator 16.0.0, SVG Export Plug-In . SVG Version: 6.00 Build 0)  -->
<!DOCTYPE svg PUBLIC "-//W3C//DTD SVG 1.1//EN" "http://www.w3.org/Graphics/SVG/1.1/DTD/svg11.dtd">
<svg version="1.1" id="图层_1" xmlns="http://www.w3.org/2000/svg" xmlns:xlink="http://www.w3.org/1999/xlink" x="0px" y="0px"
	 width="450px" height="286px" viewBox="0 0 450 286" enable-background="new 0 0 450 286" xml:space="preserve">
<g>
	<path fill="#2EC2A0" d="M240.466,201.321l-51.568-69.523l-51.559,69.523H240.466L240.466,201.321z M188.355,131.089l-0.003-0.002
		c-0.01-0.009,0.011,0.011,0.001,0.006L188.355,131.089L188.355,131.089z M282.147,32.163c4.148,0.038,8.102,0.805,11.703,2.161
		c3.777,1.421,7.184,3.486,10.041,6.034c2.941,2.623,5.321,5.763,6.947,9.252c1.584,3.398,2.461,7.125,2.461,11.025
		s-0.877,7.627-2.461,11.025c-1.626,3.488-4.005,6.628-6.947,9.251c-2.907,2.594-6.367,4.683-10.191,6.103
		c-3.665,1.36-7.677,2.113-11.869,2.113h-0.093l20.454,27.607h46.826c4.184,0,8.188,0.752,11.854,2.11
		c3.841,1.423,7.305,3.512,10.206,6.099c2.944,2.626,5.321,5.768,6.947,9.256c1.584,3.398,2.461,7.124,2.461,11.023
		c0,3.9-0.877,7.626-2.46,11.024c-1.627,3.489-4.005,6.63-6.948,9.254c-2.902,2.588-6.365,4.677-10.206,6.101
		c-3.666,1.358-7.671,2.111-11.854,2.111h-12.317h-6.304h-2.207h-1.94l-1.169-1.577l-67.027-90.5l-0.04,0.024l-2.083-2.889
		l-0.244-0.339c-5.162-7.154-7.002-9.705-12.44-9.705c-2.729,0-4.419,0.491-5.878,1.667c-1.817,1.467-3.734,4.122-6.555,8.03
		l0.01,0.007l-0.243,0.339l-2.077,2.901l-0.066-0.04l-17.389,23.4c0.54,0.736,1.087,1.496,1.651,2.278l0.264,0.367l0.007-0.005
		l0.057,0.073l0.046,0.075l0.451,0.609L230.921,85c0.627-0.896,1.395-1.762,2.275-2.547c0.854-0.763,1.814-1.451,2.859-2.022
		c1.073-0.585,2.24-1.06,3.479-1.379h0.016c1.208-0.311,2.449-0.485,3.696-0.485c1.216,0,2.417,0.156,3.585,0.446
		c1.18,0.293,2.315,0.733,3.395,1.296l0.007-0.012c1.011,0.526,1.961,1.174,2.836,1.915c0.767,0.649,1.464,1.37,2.087,2.138
		l0.065,0.056l0.276,0.375l86.44,116.541h65.327h0.076h3.883v0.245c2.775,0.317,5.441,0.964,7.943,1.896
		c3.833,1.426,7.281,3.506,10.162,6.073c2.94,2.623,5.317,5.763,6.941,9.251c1.583,3.397,2.459,7.124,2.459,11.025
		c0,3.9-0.876,7.625-2.458,11.023c-1.624,3.488-4.001,6.628-6.942,9.254c-2.9,2.584-6.359,4.671-10.195,6.094l0.002,0.005
		c-3.666,1.359-7.68,2.111-11.871,2.111H304.526h-61.481c-2.229,0-4.326,0.388-6.212,1.087c-1.972,0.732-3.741,1.798-5.213,3.111
		v0.015c-1.453,1.295-2.615,2.817-3.393,4.481l0.012,0.005c-0.735,1.578-1.143,3.305-1.143,5.107c0,2.109-0.934,3.997-2.441,5.341
		c-1.385,1.235-3.269,2-5.32,2c-2.053,0-3.936-0.766-5.319-1.999v-0.015c-1.507-1.346-2.44-3.229-2.44-5.327
		c0-3.901,0.875-7.624,2.459-11.022c1.617-3.471,3.995-6.606,6.944-9.239v-0.015c2.903-2.587,6.368-4.676,10.209-6.1
		c3.666-1.358,7.673-2.111,11.857-2.111h61.481h102.738c2.197,0,4.296-0.393,6.208-1.102l0.006,0.014
		c1.952-0.726,3.722-1.795,5.211-3.123c1.454-1.297,2.617-2.822,3.396-4.49c0.728-1.558,1.13-3.283,1.13-5.105
		c0-1.823-0.402-3.547-1.13-5.104c-0.777-1.667-1.94-3.192-3.396-4.49c-1.489-1.329-3.259-2.399-5.21-3.125l-0.006,0.015
		c-1.911-0.709-4.011-1.104-6.209-1.104h-62.14h-7.201h-2.071h-1.939l-1.171-1.577l-30.202-40.713h-48.356H245.7h-0.027h-1.94
		l-1.169-1.577l-34.002-45.908v0.274l-6.938-9.642l-0.055-0.075l0.001-0.001l-0.031-0.043l-0.243-0.338l-0.016-0.015l-0.008-0.011
		l0.003-0.002c-5.148-7.132-6.991-9.678-12.418-9.678c-5.43,0-7.272,2.542-12.417,9.669l-0.011,0.022l-0.241,0.338l-1.772,2.479
		l-0.058-0.023l-29.6,39.849h0.004l-4.6,6.189l-5.138,6.915l-30.844,41.518l-0.015,0.02l-1.285,2.09l-2.715-0.623
		c-1.063-0.244-2.129-0.545-3.186-0.898c-1.037-0.347-2.055-0.744-3.044-1.188l-0.003,0.006l-0.099-0.044l-0.06-0.03l-0.022-0.01
		l-0.526-0.244l-0.061-0.029l-0.517-0.252l-5.397-2.621l0.505-0.422c-0.688-0.516-1.348-1.058-1.981-1.622l-0.007,0.009
		c-2.941-2.624-5.319-5.765-6.945-9.254c-1.584-3.397-2.46-7.122-2.46-11.021c0-3.901,0.876-7.625,2.459-11.024
		c1.626-3.488,4.004-6.63,6.946-9.252c2.901-2.588,6.367-4.677,10.208-6.101c3.666-1.358,7.673-2.111,11.857-2.111h18.766
		l25.611-34.477c-0.584-0.45-1.13-0.9-1.635-1.349c-2.941-2.624-5.318-5.764-6.944-9.252c-1.583-3.398-2.459-7.124-2.459-11.026
		c0-3.897,0.876-7.622,2.46-11.021c1.626-3.487,4.002-6.627,6.943-9.252c2.899-2.585,6.359-4.673,10.194-6.096l-0.001-0.004
		c3.666-1.359,7.679-2.112,11.875-2.112h2.717h14.018h26.244l3.399-4.574l-0.002-0.001l0.053-0.073l0.003,0.003l0.318-0.441
		c6.55-9.091,11.032-15.312,23.854-15.312c12.82,0,17.304,6.219,23.854,15.308l0.309,0.428l0.001-0.002l0.055,0.073l3.4,4.591
		h10.967c2.227,0,4.325-0.388,6.211-1.087c1.952-0.725,3.723-1.795,5.213-3.124c1.438-1.282,2.596-2.806,3.38-4.488h0.015
		c0.727-1.558,1.129-3.283,1.129-5.107c0-1.822-0.402-3.547-1.129-5.104h-0.015c-0.784-1.683-1.943-3.208-3.38-4.489
		c-1.47-1.312-3.242-2.378-5.216-3.11v-0.015c-1.885-0.7-3.983-1.088-6.208-1.088h-30.215h-35.438h-4.515
		c-4.192,0-8.206-0.752-11.871-2.111c-3.823-1.417-7.282-3.506-10.189-6.099v-0.015c-2.949-2.633-5.328-5.769-6.945-9.241
		c-1.583-3.396-2.459-7.12-2.459-11.02c0-2.098,0.932-3.98,2.439-5.328c1.392-1.243,3.274-2.014,5.316-2.014
		c2.053,0,3.936,0.765,5.32,2c1.508,1.344,2.441,3.234,2.441,5.343c0,1.822,0.402,3.545,1.129,5.103h0.015
		c0.791,1.697,1.946,3.224,3.373,4.499l0.007-0.009c1.49,1.329,3.261,2.398,5.212,3.123l0.005-0.014
		c1.912,0.71,4.01,1.103,6.207,1.103h4.515h35.438h30.215h0.287L282.147,32.163L282.147,32.163z M264.874,122.923l-21.586-29.098
		l-18.219,24.539l-2.1,2.817l4.668,6.304l23.365,31.546h40.652l-21.651-29.194L264.874,122.923L264.874,122.923z M243.817,93.096
		l0.009-0.004h-0.007L243.817,93.096L243.817,93.096z M124.51,216.003h-1.916h-7.358h-7.7l4.59-6.189l5.129-6.914l59.238-79.883
		l-0.005-0.004c0.62-0.893,1.4-1.771,2.317-2.591c0.852-0.761,1.813-1.449,2.857-2.022c1.061-0.579,2.227-1.05,3.48-1.375
		l-0.001-0.004c1.209-0.313,2.456-0.485,3.715-0.485c1.216,0,2.416,0.156,3.583,0.446c1.175,0.293,2.306,0.729,3.38,1.29
		l0.003-0.006c1.039,0.54,1.994,1.187,2.851,1.914c0.733,0.622,1.417,1.328,2.04,2.097l0.099,0.079l0.292,0.395l64.576,87.063
		l4.591,6.189h-7.701h-7.2h-2.073H124.51L124.51,216.003z M200.556,94.718l4.156-5.591h-15.336h-14.018h-2.717
		c-2.206,0-4.305,0.391-6.214,1.096l0.001,0.005c-1.974,0.732-3.745,1.797-5.217,3.109c-1.453,1.295-2.616,2.82-3.395,4.487
		c-0.727,1.557-1.13,3.282-1.13,5.103c0,1.824,0.402,3.548,1.128,5.104c0.771,1.653,1.922,3.166,3.358,4.456l3.442-4.632
		l-0.005-0.003l0.053-0.073l0.007,0.005l0.331-0.459c6.547-9.089,11.029-15.311,23.856-15.311c3.252,0,6.021,0.451,8.474,1.289
		C198.482,93.697,199.552,94.171,200.556,94.718L200.556,94.718z M97.591,198.083l18.102-24.37h-7.861
		c-2.201,0-4.301,0.393-6.213,1.103l-0.005-0.015c-1.969,0.731-3.737,1.796-5.207,3.109v0.015c-1.453,1.295-2.615,2.817-3.393,4.481
		l0.012,0.005c-0.735,1.578-1.143,3.305-1.143,5.108c0,1.824,0.402,3.549,1.129,5.107c0.776,1.664,1.939,3.188,3.395,4.481v0.016
		C96.784,197.462,97.18,197.782,97.591,198.083L97.591,198.083z M313.065,131.414l20.453,27.617h15.5
		c2.227,0,4.324-0.388,6.209-1.087c1.954-0.726,3.725-1.797,5.215-3.128c1.438-1.281,2.596-2.806,3.381-4.488h0.015
		c0.727-1.558,1.13-3.283,1.13-5.105c0-1.823-0.403-3.547-1.13-5.105c-0.778-1.667-1.94-3.191-3.396-4.488
		c-1.49-1.331-3.262-2.402-5.217-3.128c-1.884-0.7-3.98-1.087-6.207-1.087H313.065L313.065,131.414z M69.68,182.74H39.471
		c-4.184,0-8.192-0.753-11.858-2.111c-3.841-1.424-7.306-3.511-10.207-6.099c-2.941-2.623-5.319-5.765-6.946-9.253
		C8.877,161.879,8,158.152,8,154.252s0.876-7.625,2.459-11.023c1.625-3.489,4.004-6.629,6.946-9.252
		c2.899-2.585,6.359-4.672,10.194-6.096l-0.001-0.005c3.666-1.359,7.68-2.111,11.873-2.111h5.29h29.737h16.49
		c2.229,0,4.327-0.389,6.211-1.088v-0.016c1.992-0.74,3.763-1.801,5.214-3.097v-0.015c1.455-1.294,2.618-2.818,3.394-4.482
		c0.728-1.559,1.13-3.286,1.13-5.109c0-1.803-0.408-3.529-1.144-5.106l0.013-0.005c-0.778-1.664-1.94-3.187-3.393-4.481v-0.015
		c-1.469-1.313-3.236-2.378-5.206-3.109l-0.005,0.014c-1.912-0.709-4.014-1.102-6.215-1.102H61.182
		c-4.195,0-8.208-0.752-11.874-2.112c-3.824-1.419-7.283-3.507-10.191-6.102c-2.941-2.623-5.319-5.764-6.945-9.252
		c-1.583-3.398-2.46-7.123-2.46-11.021c0-2.1,0.933-3.982,2.44-5.328c1.392-1.244,3.276-2.014,5.317-2.014s3.926,0.77,5.32,2.014
		c1.507,1.345,2.44,3.228,2.44,5.328c0,1.822,0.402,3.546,1.128,5.104c0.779,1.667,1.941,3.192,3.395,4.489
		c1.471,1.311,3.243,2.376,5.217,3.108c1.912,0.709,4.012,1.102,6.211,1.102h29.806c4.193,0,8.205,0.753,11.869,2.111
		c3.825,1.418,7.284,3.509,10.193,6.103c2.943,2.624,5.322,5.764,6.948,9.252c1.584,3.397,2.461,7.123,2.461,11.023
		c0,3.9-0.877,7.626-2.461,11.026c-1.626,3.488-4.006,6.629-6.948,9.25c-2.909,2.593-6.366,4.683-10.19,6.1
		c-3.665,1.359-7.677,2.111-11.872,2.111h-16.49H44.761h-5.29c-2.199,0-4.299,0.394-6.212,1.103l-0.006-0.014
		c-1.97,0.732-3.738,1.797-5.208,3.109v0.015c-1.453,1.295-2.616,2.817-3.394,4.481l0.013,0.006
		c-0.735,1.577-1.144,3.303-1.144,5.106c0,1.803,0.408,3.529,1.144,5.107l-0.013,0.005c0.777,1.664,1.94,3.188,3.394,4.483
		c1.489,1.329,3.26,2.398,5.215,3.124c1.885,0.701,3.984,1.088,6.211,1.088h32.964h6.758l-3.42,5.84
		c-0.537,0.918-1.003,1.866-1.39,2.836c-0.375,0.94-0.686,1.938-0.926,2.985l-0.693,3.02H69.68L69.68,182.74z"/>
</g>
</svg>
