<?xml version="1.0" encoding="utf-8"?>
<!-- Generator: Adobe Illustrator 16.0.0, SVG Export Plug-In . SVG Version: 6.00 Build 0)  -->
<!DOCTYPE svg PUBLIC "-//W3C//DTD SVG 1.1//EN" "http://www.w3.org/Graphics/SVG/1.1/DTD/svg11.dtd">
<svg version="1.1" id="图层_1" xmlns="http://www.w3.org/2000/svg" xmlns:xlink="http://www.w3.org/1999/xlink" x="0px" y="0px"
	 width="453px" height="451px" viewBox="0 0 453 451" enable-background="new 0 0 453 451" xml:space="preserve">
<g>
	<path fill="#2EC2A0" d="M245.465,198.322l-51.568-69.524l-51.558,69.524H245.465L245.465,198.322z M193.356,128.089l-0.003-0.002
		c-0.01-0.009,0.011,0.011,0.001,0.006L193.356,128.089L193.356,128.089z M287.148,29.163c4.146,0.038,8.102,0.805,11.701,2.161
		c3.779,1.421,7.186,3.486,10.041,6.034c2.943,2.623,5.322,5.763,6.947,9.252c1.584,3.398,2.461,7.125,2.461,11.025
		s-0.877,7.627-2.461,11.025c-1.625,3.488-4.004,6.628-6.947,9.251c-2.906,2.594-6.365,4.683-10.189,6.103
		c-3.666,1.36-7.678,2.113-11.869,2.113h-0.094l20.455,27.607h46.826c4.182,0,8.188,0.752,11.854,2.11
		c3.842,1.423,7.305,3.512,10.207,6.099c2.943,2.626,5.32,5.768,6.947,9.256c1.584,3.398,2.459,7.124,2.459,11.023
		c0,3.901-0.877,7.627-2.459,11.025c-1.627,3.489-4.004,6.63-6.947,9.254c-2.902,2.587-6.365,4.676-10.207,6.1
		c-3.666,1.358-7.672,2.111-11.854,2.111h-12.318h-6.303h-2.207h-1.941l-1.168-1.578l-67.027-90.499l-0.041,0.024l-2.082-2.889
		l-0.246-0.339c-5.162-7.154-7.002-9.705-12.439-9.705c-2.729,0-4.418,0.491-5.877,1.667c-1.818,1.467-3.734,4.122-6.555,8.03
		l0.01,0.007l-0.244,0.339l-2.078,2.901l-0.064-0.04l-17.39,23.4c0.54,0.736,1.088,1.496,1.651,2.278l0.264,0.367l0.007-0.005
		l0.057,0.073l0.046,0.075l0.451,0.609L235.922,82c0.627-0.896,1.395-1.762,2.275-2.547c0.854-0.763,1.813-1.451,2.857-2.022
		c1.074-0.585,2.24-1.06,3.48-1.379h0.014c1.209-0.311,2.449-0.485,3.697-0.485c1.217,0,2.416,0.156,3.586,0.446
		c1.178,0.293,2.314,0.733,3.395,1.296l0.006-0.012c1.01,0.526,1.961,1.174,2.836,1.915c0.766,0.649,1.465,1.37,2.086,2.138
		l0.066,0.056l0.277,0.375l86.439,116.542h65.326h0.076h3.885v0.245c2.775,0.317,5.441,0.964,7.941,1.896
		c3.834,1.426,7.283,3.506,10.162,6.073c2.941,2.623,5.318,5.762,6.943,9.25c1.582,3.398,2.459,7.125,2.459,11.026
		c0,3.9-0.877,7.625-2.459,11.023c-1.625,3.488-4,6.628-6.943,9.254c-2.898,2.584-6.359,4.671-10.193,6.094l0.002,0.005
		c-3.666,1.359-7.682,2.111-11.873,2.111H309.525h-61.48c-2.229,0-4.326,0.388-6.211,1.087c-1.973,0.732-3.742,1.798-5.213,3.111
		v0.015c-1.453,1.295-2.617,2.817-3.395,4.481l0.014,0.005c-0.736,1.578-1.145,3.305-1.145,5.107c0,2.109-0.934,3.997-2.441,5.341
		c-1.384,1.235-3.268,2-5.319,2c-2.053,0-3.936-0.766-5.319-1.999v-0.015c-1.507-1.346-2.44-3.229-2.44-5.327
		c0-3.901,0.875-7.624,2.459-11.022c1.617-3.471,3.994-6.606,6.943-9.239v-0.015c2.903-2.587,6.368-4.676,10.209-6.1
		c3.666-1.358,7.674-2.111,11.857-2.111h61.48h102.738c2.199,0,4.297-0.393,6.209-1.102l0.006,0.014
		c1.951-0.726,3.723-1.795,5.211-3.123c1.453-1.297,2.617-2.822,3.396-4.49c0.727-1.558,1.129-3.283,1.129-5.105
		c0-1.823-0.402-3.547-1.129-5.104c-0.779-1.667-1.941-3.192-3.396-4.49c-1.488-1.329-3.258-2.399-5.211-3.125l-0.004,0.014
		c-1.912-0.709-4.012-1.103-6.211-1.103h-62.139h-7.201h-2.072h-1.939l-1.17-1.578l-30.201-40.713h-48.357h-8.482h-0.027h-1.941
		l-1.17-1.578l-34.001-45.908v0.274l-6.938-9.642l-0.056-0.075l0.001-0.001l-0.031-0.043l-0.243-0.338l-0.016-0.015l-0.008-0.011
		l0.003-0.002c-5.148-7.132-6.99-9.678-12.417-9.678c-5.43,0-7.273,2.542-12.417,9.669l-0.011,0.022l-0.242,0.338l-1.773,2.479
		l-0.057-0.023l-29.6,39.85h0.004l-4.6,6.189l-5.138,6.915l-30.844,41.518l-0.015,0.019l-1.285,2.09l-2.716-0.623
		c-1.063-0.244-2.128-0.545-3.186-0.898c-1.037-0.347-2.055-0.744-3.044-1.187l-0.002,0.005l-0.099-0.043l-0.061-0.03l-0.022-0.01
		l-0.527-0.243l-0.06-0.03l-0.517-0.251l-5.397-2.622l0.504-0.421c-0.687-0.517-1.347-1.058-1.98-1.623l-0.007,0.009
		c-2.941-2.624-5.32-5.765-6.945-9.254c-1.585-3.397-2.461-7.122-2.461-11.021c0-3.901,0.876-7.625,2.46-11.024
		c1.626-3.489,4.005-6.63,6.946-9.252c2.901-2.588,6.366-4.677,10.207-6.101c3.666-1.358,7.673-2.111,11.857-2.111h18.766
		l25.611-34.478c-0.585-0.45-1.131-0.9-1.635-1.349c-2.942-2.624-5.319-5.764-6.944-9.252c-1.583-3.398-2.459-7.124-2.459-11.026
		c0-3.897,0.876-7.622,2.459-11.021c1.626-3.487,4.002-6.627,6.944-9.252c2.898-2.585,6.359-4.673,10.194-6.096l-0.002-0.004
		c3.666-1.359,7.679-2.112,11.875-2.112h2.717h14.018h26.243l3.4-4.574l-0.002-0.001l0.054-0.073l0.004,0.003l0.317-0.441
		c6.551-9.091,11.034-15.312,23.854-15.312s17.305,6.219,23.854,15.308l0.309,0.428l0.002-0.002l0.055,0.073l3.4,4.591h10.967
		c2.227,0,4.324-0.388,6.209-1.087c1.953-0.725,3.725-1.795,5.213-3.124c1.439-1.282,2.596-2.806,3.381-4.488h0.016
		c0.727-1.558,1.129-3.283,1.129-5.107c0-1.822-0.402-3.547-1.129-5.104h-0.016c-0.785-1.683-1.943-3.208-3.381-4.489
		c-1.469-1.312-3.24-2.378-5.215-3.11v-0.015c-1.885-0.7-3.982-1.088-6.207-1.088h-30.217h-35.437h-4.515
		c-4.192,0-8.206-0.752-11.872-2.111c-3.822-1.417-7.282-3.506-10.189-6.099v-0.015c-2.949-2.633-5.327-5.769-6.945-9.241
		c-1.583-3.396-2.459-7.12-2.459-11.02c0-2.098,0.932-3.98,2.439-5.328C189.03,8.771,190.912,8,192.955,8
		c2.052,0,3.935,0.765,5.319,2c1.508,1.344,2.441,3.234,2.441,5.343c0,1.822,0.402,3.545,1.128,5.103h0.015
		c0.792,1.697,1.946,3.224,3.374,4.499l0.007-0.009c1.491,1.329,3.261,2.398,5.212,3.123l0.005-0.014
		c1.912,0.71,4.01,1.103,6.207,1.103h4.515h35.437h30.217h0.285L287.148,29.163L287.148,29.163z M269.873,119.923l-21.584-29.098
		l-18.221,24.539l-2.099,2.817l4.669,6.304l23.363,31.546h40.654l-21.652-29.195L269.873,119.923L269.873,119.923z M248.818,90.096
		l0.008-0.004h-0.006L248.818,90.096L248.818,90.096z M129.509,213.003h-1.915h-7.358h-7.7l4.59-6.189l5.128-6.915l59.238-79.883
		l-0.006-0.004c0.62-0.893,1.401-1.771,2.318-2.591c0.851-0.761,1.812-1.449,2.857-2.022c1.06-0.579,2.227-1.05,3.48-1.375l0-0.004
		c1.209-0.313,2.456-0.485,3.714-0.485c1.216,0,2.416,0.156,3.583,0.446c1.174,0.293,2.306,0.729,3.38,1.29l0.003-0.006
		c1.039,0.54,1.994,1.187,2.851,1.914c0.733,0.622,1.417,1.328,2.039,2.097l0.099,0.079l0.293,0.395l64.576,87.063l4.592,6.189
		h-7.701h-7.201h-2.074H129.509L129.509,213.003z M205.556,91.718l4.156-5.591h-15.336h-14.018h-2.717
		c-2.206,0-4.306,0.391-6.215,1.096l0.002,0.005c-1.975,0.732-3.745,1.797-5.217,3.109c-1.453,1.295-2.617,2.82-3.395,4.487
		c-0.727,1.557-1.13,3.282-1.13,5.103c0,1.824,0.402,3.548,1.129,5.104c0.771,1.653,1.921,3.166,3.357,4.456l3.442-4.632
		l-0.005-0.003l0.053-0.073l0.007,0.005l0.331-0.459c6.547-9.089,11.03-15.311,23.856-15.311c3.252,0,6.021,0.451,8.474,1.289
		C203.482,90.697,204.552,91.171,205.556,91.718L205.556,91.718z M102.591,195.083l18.101-24.371h-7.861
		c-2.201,0-4.301,0.393-6.214,1.102l-0.005-0.014c-1.969,0.731-3.737,1.796-5.206,3.109v0.015c-1.453,1.294-2.616,2.817-3.394,4.481
		l0.013,0.005c-0.736,1.577-1.144,3.305-1.144,5.108c0,1.824,0.402,3.549,1.129,5.107c0.777,1.664,1.939,3.188,3.395,4.482v0.015
		C101.784,194.462,102.18,194.782,102.591,195.083L102.591,195.083z M318.066,128.414l20.451,27.618h15.502
		c2.227,0,4.322-0.388,6.207-1.087c1.955-0.726,3.725-1.797,5.215-3.128c1.439-1.281,2.598-2.806,3.381-4.488h0.016
		c0.727-1.558,1.129-3.283,1.129-5.106c0-1.822-0.402-3.546-1.129-5.104c-0.779-1.667-1.941-3.191-3.396-4.488
		c-1.49-1.331-3.262-2.402-5.215-3.128c-1.885-0.7-3.98-1.087-6.207-1.087H318.066L318.066,128.414z M74.68,179.74H44.471
		c-4.183,0-8.192-0.753-11.859-2.111c-3.841-1.423-7.305-3.511-10.206-6.099c-2.942-2.624-5.319-5.765-6.946-9.253
		C13.876,158.879,13,155.152,13,151.252s0.876-7.625,2.459-11.023c1.626-3.489,4.004-6.629,6.946-9.252
		c2.898-2.585,6.358-4.672,10.194-6.096l-0.002-0.005c3.666-1.359,7.68-2.111,11.873-2.111h5.29h29.737h16.49
		c2.228,0,4.326-0.389,6.21-1.088v-0.016c1.992-0.74,3.763-1.801,5.215-3.097v-0.015c1.455-1.294,2.617-2.818,3.395-4.482
		c0.727-1.559,1.129-3.286,1.129-5.109c0-1.803-0.408-3.529-1.143-5.106l0.012-0.005c-0.777-1.664-1.94-3.187-3.393-4.481v-0.015
		c-1.47-1.313-3.236-2.378-5.205-3.109l-0.006,0.014c-1.912-0.709-4.013-1.102-6.214-1.102H66.181
		c-4.194,0-8.207-0.752-11.873-2.112c-3.824-1.419-7.283-3.507-10.191-6.102c-2.941-2.623-5.319-5.764-6.945-9.252
		c-1.584-3.398-2.46-7.123-2.46-11.021c0-2.1,0.932-3.982,2.439-5.328c1.392-1.244,3.277-2.014,5.317-2.014
		c2.042,0,3.927,0.77,5.32,2.014c1.508,1.345,2.441,3.228,2.441,5.328c0,1.822,0.403,3.546,1.128,5.104
		c0.778,1.667,1.941,3.192,3.395,4.489c1.471,1.311,3.243,2.376,5.217,3.108c1.912,0.709,4.012,1.102,6.21,1.102h29.807
		c4.193,0,8.204,0.753,11.868,2.111c3.825,1.418,7.285,3.509,10.193,6.103c2.943,2.624,5.322,5.764,6.948,9.252
		c1.585,3.397,2.461,7.123,2.461,11.023c0,3.9-0.877,7.626-2.461,11.026c-1.626,3.488-4.005,6.629-6.948,9.25
		c-2.909,2.593-6.366,4.683-10.19,6.1c-3.666,1.359-7.677,2.111-11.872,2.111h-16.49H49.761h-5.29c-2.199,0-4.299,0.394-6.212,1.103
		l-0.005-0.014c-1.97,0.732-3.739,1.797-5.208,3.109v0.015c-1.454,1.295-2.617,2.818-3.394,4.481l0.012,0.005
		c-0.735,1.578-1.143,3.303-1.143,5.107c0,1.803,0.408,3.529,1.143,5.107l-0.012,0.005c0.777,1.664,1.94,3.188,3.394,4.483
		c1.49,1.329,3.26,2.398,5.214,3.124c1.886,0.701,3.984,1.087,6.211,1.087h32.964h6.757l-3.42,5.841
		c-0.537,0.917-1.002,1.866-1.389,2.835c-0.375,0.941-0.686,1.938-0.926,2.986l-0.693,3.019H74.68L74.68,179.74z"/>
	<path fill-rule="evenodd" clip-rule="evenodd" fill="#2EC2A0" d="M69.581,345.575c0.748,0.59,1.492,1.284,2.228,2.084
		l15.068,12.176h20.098c2.682,0,4.865,2.183,4.865,4.865c0,1.637-0.809,3.087-2.048,3.97h11.018c2.57,0,5.401-0.54,7.209-2.522
		c1.998-2.189,2.46-5.668,2.46-8.508v-42.741c0-4.698,1.108-9.416,4.396-12.932c3.302-3.53,7.817-4.841,12.549-4.851
		c2.681-0.005,4.859,2.174,4.859,4.854s-2.175,4.854-4.854,4.855c-1.865,0.002-4.105,0.332-5.446,1.767
		c-1.469,1.574-1.771,4.256-1.771,6.307v42.741c0,5.443-1.273,10.943-5.036,15.055c-3.75,4.098-8.908,5.705-14.366,5.705H33.106
		c-4.451,0-8.734-1.22-11.961-4.4l-0.102-0.085l-0.049-0.066c-3.158-3.216-4.414-7.528-4.414-11.971v-31.264
		c0-2.686,2.183-4.867,4.868-4.867c2.687,0,4.864,2.182,4.864,4.867v31.264c0,1.724,0.316,3.81,1.558,5.114l0.083,0.08
		c1.293,1.294,3.41,1.599,5.153,1.599h4.928c-0.235-0.188-0.457-0.401-0.66-0.638c-1.738-2.029-1.495-5.12,0.538-6.853
		l15.906-13.566c0.771-0.775,1.547-1.455,2.327-2.038h-9.67c-2.685,0-5.242-1.069-7.138-2.967c-1.9-1.901-2.965-4.452-2.965-7.142
		v-10.646c0-2.686,1.067-5.242,2.964-7.142c1.896-1.897,4.455-2.961,7.139-2.961h7.104c2.687,0,4.864,2.179,4.864,4.865
		c0,2.685-2.179,4.866-4.864,4.866h-7.104c-0.098,0-0.189,0.041-0.258,0.11c-0.069,0.069-0.115,0.161-0.115,0.261v10.646
		c0,0.099,0.045,0.192,0.113,0.261c0.069,0.068,0.161,0.113,0.259,0.113h11.751c-0.039-0.248-0.059-0.5-0.059-0.755v-10.938
		c0-2.454,0.333-4.763,1.974-6.685c1.851-2.168,4.366-2.745,7.124-2.745h11.493c-0.329-1.138-0.244-2.393,0.321-3.521
		c0.086-0.173,0.109-0.459,0.109-0.648c0-0.241-0.036-0.554-0.15-0.773c-0.011-0.02-0.029-0.053-0.005-0.055
		c-0.055-0.008-0.127-0.009-0.174-0.009H51.961v-0.13c-2.16-0.312-4.133-1.229-5.734-2.79c-1.881-1.832-2.929-4.229-3.315-6.802
		c-0.399-2.655,1.429-5.139,4.086-5.537c2.655-0.398,5.129,1.438,5.531,4.09c0.054,0.354,0.2,1.024,0.472,1.29
		c0.09,0.088,0.242,0.128,0.379,0.146h25.479c1.571,0,3.094,0.346,4.5,1.052c1.857,0.933,3.319,2.417,4.279,4.253
		c0.844,1.613,1.285,3.446,1.285,5.266c0,1.485-0.293,2.975-0.868,4.344c1.985,0.374,3.823,1.338,5.272,2.788
		c1.896,1.898,2.965,4.455,2.965,7.141v10.646c0,2.688-1.068,5.24-2.965,7.141c-1.896,1.899-4.456,2.968-7.141,2.968H69.581
		L69.581,345.575z M44.091,368.67h38.275c-0.082-0.059-0.163-0.12-0.242-0.184l-16.563-13.386c-0.273-0.201-0.524-0.432-0.749-0.686
		c-1.507-1.693-2.658-1.422-4.149,0.09c-0.121,0.132-0.25,0.256-0.386,0.372l-16.054,13.685
		C44.179,368.599,44.136,368.635,44.091,368.67L44.091,368.67z M229.934,358.143c-0.244,0.313-0.533,0.602-0.861,0.855
		c-2.122,1.641-5.174,1.249-6.813-0.873l-24.211-31.364c-0.545-0.705-1.164-1.371-1.867-1.924c-0.807-0.634-1.808-1.164-2.859-1.166
		c-1.071-0.002-2.09,0.528-2.918,1.168c-0.722,0.557-1.362,1.247-1.923,1.963l-31.443,40.063c-1.656,2.109-4.719,2.477-6.828,0.818
		c-1.176-0.925-1.858-2.327-1.858-3.821l-0.003-47.572c0-2.687,2.179-4.865,4.866-4.865c2.686,0,4.869,2.18,4.869,4.865v33.495
		l22.75-28.992c1.063-1.354,2.274-2.588,3.636-3.642c2.575-1.99,5.583-3.19,8.859-3.184c3.282,0.006,6.291,1.213,8.858,3.227
		c1.334,1.047,2.512,2.29,3.548,3.631l24.2,31.348V316.29c0-2.689,2.18-4.865,4.869-4.865c2.684,0,4.863,2.182,4.863,4.865v45.289
		c0,4.417-0.797,9.229-3.826,12.644c-2.564,2.888-5.953,4.059-9.736,4.059h-65.653l-0.035-0.003h-0.067l-0.034-0.003l-0.131-0.002
		l-0.095-0.012l-0.076-0.004l-0.202-0.027l-0.16-0.01l-0.086-0.033l-0.098-0.016l-0.03-0.009l-0.092-0.009l-0.152-0.055
		l-0.042-0.009l-0.043-0.016l-0.059-0.012l-0.059-0.023l-0.02-0.005l-0.13-0.051l-0.138-0.049l-0.025-0.015l-0.063-0.022
		l-0.136-0.063l-0.201-0.102l-0.054-0.022l-0.277-0.165l-0.152-0.099l-0.287-0.174l-0.042-0.071
		c-2.065-1.657-2.416-4.678-0.786-6.774l25.223-32.441c2.822-3.63,6.583-6.858,11.426-6.848c4.832,0.012,8.575,3.227,11.39,6.848
		l23.437,30.141c0.154-0.09,0.297-0.202,0.42-0.34c1.212-1.367,1.361-4.502,1.361-6.209V358.143L229.934,358.143z M376.209,331.061
		c1.387-2.281,4.379-3.024,6.664-1.639c2.281,1.384,3.02,4.387,1.633,6.668l-13.854,22.812c-1.383,2.277-4.381,3.015-6.66,1.636
		c-2.281-1.38-3.023-4.386-1.639-6.665L376.209,331.061L376.209,331.061z M381.508,318.397h11.811v-19.132
		c0-2.688,2.182-4.866,4.869-4.866s4.863,2.181,4.863,4.866v5.278h24.457c2.686,0,4.863,2.18,4.863,4.865
		c0,2.685-2.18,4.863-4.863,4.863h-24.457v4.125h33.41c2.689,0,4.865,2.179,4.865,4.868c0,2.691-2.176,4.865-4.865,4.865h-33.41
		v33.324c0,2.687-2.174,4.868-4.863,4.868c-2.688,0-4.869-2.18-4.869-4.868v-33.324H359.91c-2.686,0-4.865-2.179-4.865-4.865
		c0-2.685,2.18-4.868,4.865-4.868h11.865v-14.061c0-2.689,2.18-4.865,4.869-4.865c2.686,0,4.863,2.182,4.863,4.865V318.397
		L381.508,318.397z M293.719,334.253l8.777,6.21v-12.332h-18.844c-2.686,0-4.863-2.179-4.863-4.865c0-2.685,2.178-4.868,4.863-4.868
		h18.844v-4.125h-15.717c-2.686,0-4.867-2.177-4.867-4.863c0-2.688,2.18-4.865,4.867-4.865h15.717v-5.278
		c0-2.688,2.176-4.866,4.863-4.866c2.689,0,4.863,2.178,4.863,4.866v5.278h15.955c2.688,0,4.869,2.178,4.869,4.865
		c0,2.687-2.184,4.863-4.869,4.863h-15.955v4.125h22.971c2.688,0,4.863,2.182,4.863,4.868c0,2.688-2.176,4.865-4.863,4.865h-22.971
		v2.775h15.619c2.686,0,4.865,2.177,4.865,4.863s-2.178,4.866-4.865,4.866h-15.619v6.709l28.67,20.279l4.07,1.046h60.025
		c2.494,0,5.402-0.85,7.551-2.09c1.795-1.036,3.313-2.47,4.182-4.376l12.832-28.112c1.111-2.435,4-3.512,6.434-2.398
		c2.434,1.112,3.51,3.997,2.398,6.431l-12.834,28.114c-1.723,3.776-4.6,6.693-8.174,8.753c-3.563,2.053-8.258,3.408-12.389,3.408
		h-62.063v-0.236l-5.299-1.359c-0.572-0.147-1.115-0.399-1.598-0.742l-30.283-21.421c-0.852-0.3-1.605-0.834-2.176-1.535
		l-15.049-10.647v31.077c0,2.688-2.18,4.864-4.869,4.864c-2.684,0-4.863-2.18-4.863-4.864v-33.457c0-1.725,0.51-3.4,1.492-4.782
		c0.105-0.159,0.215-0.294,0.32-0.415c0.723-0.906,1.619-1.627,2.656-2.145c1.184-0.592,2.479-0.896,3.803-0.896
		c2.32,0,4.52,0.89,6.395,2.214C293.545,334.118,293.633,334.184,293.719,334.253L293.719,334.253z M271.57,318.397
		c2.688,0,4.865,2.182,4.865,4.868c0,2.688-2.178,4.865-4.865,4.865c-0.648,0-3.053,0.038-3.553,0.529
		c-0.498,0.488-0.537,2.92-0.537,3.561v41.314c0,2.688-2.182,4.864-4.867,4.864c-2.688,0-4.865-2.179-4.865-4.864v-41.314
		c0-3.818,0.627-7.695,3.459-10.483C263.998,318.993,267.805,318.397,271.57,318.397L271.57,318.397z M99.37,344.723
		c3.335,0,6.041,2.704,6.041,6.04c0,3.339-2.702,6.044-6.041,6.044c-3.34,0-6.043-2.704-6.043-6.044
		C93.327,347.426,96.032,344.723,99.37,344.723L99.37,344.723z M264.816,303.366c3.336,0,6.041,2.707,6.041,6.043
		c0,3.335-2.705,6.043-6.041,6.043s-6.045-2.706-6.045-6.043S261.48,303.366,264.816,303.366L264.816,303.366z M21.448,311.223
		c3.34,0,6.041,2.705,6.041,6.044c0,3.338-2.703,6.04-6.041,6.04c-3.335,0-6.044-2.703-6.044-6.04S18.111,311.223,21.448,311.223
		L21.448,311.223z M67.841,335.841h18.345c0.098,0,0.19-0.048,0.258-0.116c0.07-0.069,0.114-0.158,0.114-0.258v-10.646
		c0-0.1-0.048-0.189-0.117-0.26c-0.068-0.067-0.16-0.111-0.255-0.111H67.899v10.636C67.899,335.341,67.88,335.593,67.841,335.841
		L67.841,335.841z M170.461,368.55h45.696l-19.12-24.592c-0.644-0.827-2.525-3.111-3.717-3.112c-1.211-0.001-3.087,2.272-3.74,3.112
		L170.461,368.55L170.461,368.55z"/>
	<path fill-rule="evenodd" clip-rule="evenodd" fill="#2EC2A0" d="M40.133,404.667l-0.022-0.02l0.822-0.904
		c0.005-0.007,0.011-0.012,0.016-0.018l0.715-0.786l0.14,0.128c0.479-0.272,1.016-0.447,1.559-0.52
		c0.873-0.117,1.786,0.022,2.551,0.432l0.082,0.042c0.216,0.122,0.422,0.262,0.611,0.421c0.563,0.479,0.974,1.11,1.139,1.835
		c0.174,0.768,0.053,1.551-0.332,2.237c-0.107,0.191-0.232,0.373-0.373,0.541l-11.65,13.363v14.849c0,1.03-0.496,1.944-1.304,2.568
		c-0.729,0.562-1.65,0.84-2.565,0.84s-1.836-0.278-2.564-0.84c-0.81-0.624-1.305-1.538-1.305-2.568V421.36l-11.594-13.307
		c-0.161-0.192-0.306-0.399-0.423-0.622c-0.351-0.664-0.466-1.411-0.307-2.147c0.157-0.721,0.561-1.346,1.123-1.818
		c0.205-0.171,0.416-0.316,0.631-0.433c0.782-0.461,1.715-0.606,2.609-0.484c0.849,0.116,1.682,0.484,2.302,1.081
		c0.058,0.05,0.112,0.105,0.171,0.17l9.382,10.784L40.133,404.667L40.133,404.667z M68.435,402.529
		c0.062,0.014,0.121,0.029,0.181,0.049c0.482,0.151,0.943,0.392,1.332,0.717c0.4,0.335,0.724,0.753,0.923,1.236l14.845,30.291
		c0.098,0.185,0.177,0.381,0.235,0.582c0.222,0.763,0.137,1.571-0.219,2.279c-0.331,0.66-0.87,1.194-1.521,1.537
		c-0.222,0.118-0.456,0.212-0.708,0.288l-0.045,0.013c-0.875,0.244-1.836,0.224-2.693-0.081c-0.924-0.328-1.693-0.965-2.084-1.849
		l-3.666-7.489c-0.013-0.001-0.025-0.001-0.034-0.001H59.65c-0.009,0-0.021,0-0.034,0.001l-3.651,7.459
		c-0.399,0.904-1.176,1.551-2.099,1.879c-0.856,0.305-1.813,0.321-2.686,0.083l-0.028-0.008c-0.253-0.074-0.501-0.172-0.735-0.296
		c-0.649-0.344-1.188-0.877-1.519-1.536c-0.355-0.709-0.441-1.517-0.218-2.28c0.06-0.205,0.14-0.402,0.222-0.556l14.859-30.319
		c0.395-0.911,1.176-1.558,2.101-1.887C66.679,402.351,67.593,402.32,68.435,402.529L68.435,402.529z M107.511,408.336v27.89
		c0,1.027-0.495,1.949-1.293,2.581c-0.728,0.575-1.652,0.869-2.576,0.869c-0.9,0-1.796-0.265-2.505-0.8l-0.08-0.061
		c-0.803-0.635-1.286-1.561-1.286-2.59v-27.89h-9.756c-0.781,0-1.55-0.251-2.155-0.749c-0.676-0.556-1.076-1.357-1.076-2.236
		c0-0.889,0.423-1.685,1.125-2.221c0.603-0.458,1.353-0.682,2.106-0.682h27.251c0.748,0,1.502,0.237,2.099,0.691
		c0.7,0.534,1.133,1.324,1.133,2.211c0,0.877-0.41,1.671-1.081,2.226c-0.602,0.494-1.374,0.76-2.15,0.76H107.511L107.511,408.336z
		 M149.133,408.435v9.564c0.034,0.026,0.086,0.048,0.127,0.062c0.083,0.027,0.175,0.037,0.262,0.037h13.785
		c0.979,0,1.955,0.149,2.873,0.443l0.056,0.017c0.934,0.304,1.82,0.756,2.603,1.349l0.065,0.054
		c0.742,0.616,1.371,1.361,1.811,2.222c0.436,0.854,0.668,1.78,0.668,2.741v8.056c0,0.961-0.231,1.894-0.673,2.747
		c-0.434,0.841-1.055,1.566-1.76,2.135l-0.077,0.063c-0.762,0.605-1.633,1.062-2.545,1.361l-0.046,0.016
		c-0.959,0.312-1.966,0.459-2.974,0.459h-17.883c-1.168,0-2.296-0.486-2.91-1.517c-0.017-0.027-0.033-0.055-0.049-0.083
		c-0.225-0.407-0.342-0.862-0.343-1.327c-0.002-0.466,0.114-0.923,0.339-1.33c0.597-1.087,1.761-1.588,2.962-1.588h17.883
		c0.066,0,0.131-0.01,0.192-0.032c0.051-0.018,0.099-0.043,0.144-0.071v-9.762c-0.023-0.012-0.048-0.021-0.073-0.029
		c-0.083-0.027-0.176-0.035-0.263-0.035h-13.785c-1.016,0-2.028-0.152-2.993-0.471c-0.929-0.306-1.802-0.767-2.55-1.351
		l-0.075-0.057c-0.755-0.597-1.388-1.345-1.83-2.201c-0.44-0.852-0.68-1.785-0.68-2.745v-7.93c0-0.953,0.236-1.872,0.672-2.716
		c0.431-0.833,1.031-1.55,1.726-2.136c0.05-0.045,0.091-0.081,0.146-0.122c0.79-0.598,1.681-1.05,2.622-1.353
		c0.958-0.307,1.958-0.457,2.963-0.457h17.831c1.215,0,2.384,0.533,2.98,1.63c0.22,0.405,0.338,0.857,0.342,1.319
		c0.003,0.471-0.113,0.934-0.339,1.347c-0.601,1.095-1.773,1.592-2.982,1.592h-17.831c-0.087,0-0.178,0.011-0.261,0.037
		c-0.044,0.015-0.083,0.026-0.095,0.034L149.133,408.435L149.133,408.435z M172.156,433.463c-0.051-0.171-0.077-0.349-0.077-0.526
		v-23.621c0-0.179,0.026-0.355,0.077-0.526c0.066-0.756,0.27-1.474,0.594-2.124c0.02-0.047,0.032-0.075,0.055-0.12
		c0.441-0.864,1.077-1.616,1.837-2.219c0.782-0.619,1.687-1.089,2.632-1.4c0.961-0.317,1.975-0.478,2.987-0.478h20.386
		c1.217,0,2.364,0.564,2.938,1.666c0.207,0.397,0.318,0.839,0.323,1.286c0.005,0.46-0.104,0.917-0.319,1.325
		c-0.583,1.102-1.735,1.61-2.943,1.61H180.26c-0.095,0-0.198,0.013-0.288,0.044c-0.022,0.008-0.056,0.02-0.079,0.032
		c-0.023,0.022-0.049,0.043-0.074,0.063v9.875h20.827c1.217,0,2.364,0.564,2.938,1.666c0.207,0.396,0.318,0.838,0.323,1.285
		c0.005,0.461-0.104,0.918-0.319,1.325c-0.583,1.103-1.735,1.611-2.943,1.611h-20.827v9.536c0.037,0.021,0.092,0.039,0.127,0.051
		c0.102,0.032,0.209,0.048,0.314,0.048h20.386c1.207,0,2.361,0.51,2.943,1.61c0.215,0.408,0.323,0.862,0.319,1.324
		c-0.004,0.449-0.113,0.891-0.322,1.29c-0.577,1.1-1.724,1.662-2.939,1.662H180.26c-1.027,0-2.057-0.153-3.032-0.476
		c-0.949-0.313-1.847-0.789-2.6-1.414c-0.75-0.598-1.382-1.333-1.823-2.186C172.447,434.989,172.225,434.24,172.156,433.463
		L172.156,433.463z M234.646,428.005v-22.106c0-1.025,0.514-1.941,1.318-2.562c0.725-0.56,1.641-0.846,2.551-0.846
		c0.912,0,1.828,0.287,2.553,0.846c0.805,0.619,1.318,1.536,1.318,2.562v30.369c0,1.027-0.494,1.949-1.295,2.581
		c-0.729,0.575-1.65,0.869-2.576,0.869c-0.51,0-1.021-0.093-1.502-0.27c-0.465-0.172-0.896-0.419-1.248-0.728
		c-0.07-0.056-0.127-0.108-0.182-0.167l-23.218-24.332v22.046c0,1.024-0.506,1.938-1.301,2.569
		c-0.723,0.572-1.648,0.881-2.568,0.881c-0.924,0-1.85-0.294-2.578-0.87c-0.797-0.633-1.291-1.553-1.291-2.58v-30.369
		c0-0.582,0.167-1.149,0.47-1.646c0.28-0.456,0.657-0.833,1.09-1.105c0.774-0.533,1.725-0.756,2.658-0.672
		c0.939,0.084,1.847,0.48,2.499,1.148L234.646,428.005L234.646,428.005z M273.576,423.858v12.409c0,1.024-0.514,1.947-1.309,2.576
		c-0.725,0.572-1.641,0.874-2.561,0.874c-0.922,0-1.842-0.3-2.566-0.877c-0.791-0.629-1.303-1.551-1.303-2.573v-30.242
		c0-1.027,0.494-1.947,1.291-2.579c0.729-0.577,1.654-0.871,2.578-0.871c0.896,0,1.779,0.268,2.469,0.791
		c0.041,0.027,0.068,0.048,0.107,0.079c0.799,0.632,1.293,1.553,1.293,2.58v11.945h18.768v-11.945c0-1.027,0.494-1.947,1.293-2.579
		c0.727-0.577,1.652-0.871,2.576-0.871c0.926,0,1.852,0.294,2.578,0.871c0.797,0.632,1.293,1.553,1.293,2.579v30.242
		c0,0.993-0.486,1.895-1.219,2.501l-0.088,0.074c-0.725,0.574-1.643,0.875-2.564,0.875s-1.842-0.3-2.564-0.877
		c-0.793-0.629-1.305-1.551-1.305-2.573v-12.409H273.576L273.576,423.858z M305.676,408.336h-1.666c-0.76,0-1.52-0.254-2.117-0.728
		c-0.684-0.541-1.111-1.337-1.111-2.216c0-0.88,0.428-1.674,1.111-2.216c0.598-0.473,1.357-0.729,2.117-0.729h11.02
		c0.762,0,1.523,0.239,2.131,0.703c0.707,0.54,1.152,1.344,1.152,2.241c0,0.896-0.445,1.702-1.152,2.242
		c-0.607,0.463-1.369,0.701-2.131,0.701h-1.613v25.537h1.613c0.762,0,1.523,0.239,2.131,0.702c0.707,0.54,1.152,1.344,1.152,2.241
		s-0.445,1.702-1.152,2.241c-0.607,0.464-1.369,0.702-2.131,0.702h-11.02c-0.76,0-1.52-0.254-2.117-0.728
		c-0.684-0.541-1.111-1.336-1.111-2.216c0-0.879,0.428-1.675,1.111-2.216c0.598-0.474,1.357-0.728,2.117-0.728l1.666-0.01V408.336
		L305.676,408.336z M326.75,424.65v11.702c0,1.04-0.508,1.969-1.326,2.599c-0.738,0.57-1.67,0.851-2.598,0.851
		c-0.924,0-1.84-0.293-2.561-0.879c-0.783-0.637-1.256-1.556-1.256-2.57V405.73c0-1.016,0.473-1.935,1.256-2.571
		c0.721-0.586,1.637-0.879,2.561-0.879c0.928,0,1.859,0.28,2.598,0.852c0.818,0.63,1.326,1.558,1.326,2.599v9.541l2.24,1.825
		l13.834-13.822c0.955-0.931,2.348-1.214,3.598-0.768c0.385,0.138,0.748,0.345,1.059,0.611c0.354,0.304,0.637,0.683,0.809,1.117
		c0.426,1.07,0.129,2.156-0.672,2.995l-13.801,13.808l14.951,12.431c0.178,0.152,0.344,0.318,0.49,0.502
		c0.469,0.591,0.727,1.314,0.715,2.069c-0.012,0.762-0.295,1.48-0.787,2.062c-0.137,0.164-0.283,0.306-0.43,0.426l-0.039,0.035
		c-0.711,0.603-1.631,0.897-2.557,0.897c-0.906,0-1.826-0.284-2.602-0.858L326.75,424.65L326.75,424.65z M363.342,408.336v25.537
		h1.613c0.762,0,1.521,0.239,2.131,0.702c0.707,0.54,1.152,1.344,1.152,2.241s-0.445,1.702-1.152,2.241
		c-0.607,0.465-1.369,0.702-2.131,0.702h-11.02c-0.76,0-1.52-0.254-2.117-0.728c-0.684-0.541-1.111-1.336-1.111-2.216
		c0-0.879,0.428-1.675,1.111-2.216c0.598-0.474,1.357-0.728,2.117-0.728l1.666-0.011v-25.526h-1.666c-0.76,0-1.52-0.254-2.117-0.728
		c-0.684-0.541-1.111-1.337-1.111-2.216s0.428-1.674,1.111-2.216c0.598-0.473,1.357-0.729,2.117-0.729h11.02
		c0.762,0,1.523,0.238,2.131,0.703c0.707,0.54,1.152,1.344,1.152,2.241c0,0.896-0.445,1.702-1.152,2.242
		c-0.609,0.463-1.369,0.701-2.131,0.701H363.342L363.342,408.336z M398.955,428.005v-22.106c0-1.025,0.514-1.941,1.318-2.562
		c0.725-0.56,1.641-0.846,2.551-0.846c0.912,0,1.828,0.287,2.553,0.846c0.803,0.62,1.318,1.536,1.318,2.562v30.369
		c0,1.027-0.494,1.949-1.293,2.581c-0.729,0.575-1.652,0.869-2.578,0.869c-0.51,0-1.021-0.093-1.502-0.27
		c-0.465-0.173-0.896-0.419-1.248-0.728c-0.068-0.054-0.123-0.104-0.182-0.167l-23.219-24.332v22.046
		c0,1.024-0.504,1.938-1.299,2.569c-0.723,0.572-1.648,0.881-2.57,0.881c-0.924,0-1.85-0.294-2.578-0.87
		c-0.797-0.633-1.291-1.553-1.291-2.58v-30.369c0-0.581,0.168-1.148,0.471-1.644c0.279-0.459,0.656-0.835,1.09-1.107
		c0.773-0.535,1.725-0.757,2.658-0.673c0.939,0.084,1.848,0.48,2.498,1.148L398.955,428.005L398.955,428.005z M415.131,408.402
		v25.368c0.043,0.027,0.092,0.052,0.139,0.069c0.063,0.022,0.129,0.033,0.195,0.033h17.885c0.084,0,0.172-0.011,0.252-0.038
		c0.049-0.017,0.094-0.037,0.137-0.064v-9.304c-0.043-0.026-0.088-0.048-0.139-0.065c-0.078-0.026-0.166-0.037-0.25-0.037h-6.707
		c-1.199,0-2.363-0.485-2.961-1.569c-0.229-0.412-0.346-0.876-0.34-1.347c0.004-0.457,0.123-0.906,0.344-1.308
		c0.592-1.085,1.752-1.622,2.957-1.622h6.707c1.016,0,2.027,0.152,2.994,0.472c0.928,0.306,1.789,0.759,2.541,1.345l0.047,0.033
		c0.775,0.585,1.418,1.333,1.865,2.196c0.445,0.86,0.682,1.809,0.682,2.779v7.551c0,0.968-0.236,1.909-0.676,2.77
		c-0.43,0.844-1.037,1.572-1.756,2.153c-0.039,0.034-0.07,0.061-0.113,0.092c-0.795,0.602-1.689,1.068-2.635,1.381
		c-0.951,0.313-1.947,0.47-2.949,0.47h-17.885c-0.99,0-1.975-0.163-2.914-0.477c-0.938-0.313-1.828-0.777-2.615-1.374l-0.064-0.047
		l-0.021-0.022c-0.736-0.595-1.352-1.331-1.783-2.176c-0.439-0.86-0.676-1.802-0.676-2.77v-23.622c0-0.962,0.232-1.895,0.674-2.748
		c0.443-0.859,1.082-1.6,1.84-2.198c0.777-0.616,1.662-1.087,2.602-1.4c0.953-0.318,1.955-0.478,2.959-0.478h22.355
		c1.184,0,2.311,0.517,2.904,1.559l0.049,0.086c0.215,0.402,0.326,0.851,0.33,1.305c0.002,0.463-0.111,0.919-0.328,1.326
		c-0.588,1.101-1.746,1.612-2.955,1.612h-22.355c-0.086,0-0.18,0.01-0.262,0.036C415.178,408.38,415.154,408.391,415.131,408.402
		L415.131,408.402z M139.588,423.099c-0.602,0.477-1.357,0.718-2.122,0.718h-13.04c-0.765,0-1.521-0.241-2.123-0.718
		c-0.687-0.544-1.108-1.345-1.108-2.227c0-0.881,0.421-1.682,1.108-2.226c0.602-0.477,1.358-0.718,2.123-0.718h13.04
		c0.765,0,1.521,0.241,2.122,0.718c0.688,0.545,1.108,1.345,1.108,2.226C140.697,421.754,140.276,422.554,139.588,423.099
		L139.588,423.099z M72.104,424.214l-4.789-9.777l-4.79,9.777H72.104L72.104,424.214z"/>
</g>
</svg>
